<?xml version="1.0" standalone="no"?>
<!DOCTYPE svg PUBLIC "-//W3C//DTD SVG 20010904//EN"
 "http://www.w3.org/TR/2001/REC-SVG-20010904/DTD/svg10.dtd">
<svg version="1.0" xmlns="http://www.w3.org/2000/svg"
 width="40.000000pt" height="40.000000pt" viewBox="0 0 40.000000 40.000000"
 preserveAspectRatio="xMidYMid meet">

<g transform="translate(0.000000,40.000000) scale(0.100000,-0.100000)"
fill="#000000" stroke="none">
<path d="M81 387 c-59 -21 -76 -55 -79 -165 -4 -113 10 -165 51 -196 22 -16
46 -21 125 -24 113 -4 165 9 196 51 17 23 21 46 24 130 5 117 -9 164 -54 194
-35 22 -211 30 -263 10z m129 -147 c0 -27 3 -30 30 -30 17 0 30 -4 30 -10 0
-5 -13 -10 -30 -10 -27 0 -30 -3 -30 -30 0 -16 -4 -30 -10 -30 -5 0 -10 14
-10 30 0 27 -3 30 -30 30 -16 0 -30 5 -30 10 0 6 14 10 30 10 27 0 30 3 30 30
0 17 5 30 10 30 6 0 10 -13 10 -30z"/>
</g>
</svg>
