<?xml version="1.0"?>
<svg version="1.1" xmlns="http://www.w3.org/2000/svg" width="400" height="200" style=""><path fill="#" d="M15,80.517578125q0-0.68359375,0.9521484375-1.0498046875t1.2451171875-0.3662109375l1.806640625-0.29296875q1.806640625-0.29296875,3.662109375-0.5126953125t3.61328125-0.4150390625q6.201171875-0.78125,12.40234375-1.5380859375t12.5-0.7568359375q0.48828125,0,1.3427734375,0.048828125t1.708984375,0.2685546875t1.46484375,0.6103515625t0.6103515625,1.07421875q0,0.48828125-0.4638671875,0.8544921875t-1.0986328125,0.5615234375t-1.2939453125,0.244140625t-1.0498046875,0.048828125l-0.8544921875,0t-0.8544921875-0.1953125q-2.587890625,0-5.1025390625,0.244140625t-5.1025390625,0.439453125q0.68359375,0.78125,0.732421875,2.197265625t0.09765625,2.44140625q0,17.28515625,0.244140625,34.375t0.439453125,34.521484375l0,0.09765625q-1.611328125,1.416015625-2.7587890625,1.806640625t-2.3193359375,0.390625q-1.123046875,0-2.2705078125-0.4150390625t-2.7587890625-1.7822265625l0-0.09765625l0.390625-38.330078125q0-3.80859375-0.09765625-8.3984375t-0.09765625-9.3017578125t0.146484375-9.1064453125t0.78125-7.666015625q-2.880859375,0.29296875-6.103515625,0.87890625q-2.783203125,0.48828125-5.322265625,0.48828125l-0.87890625,0q-0.1953125,0-1.1474609375,0.048828125t-1.953125-0.048828125t-1.806640625-0.390625t-0.8056640625-0.9765625z M63.27490234375,133.7890625q0-3.41796875,0.7568359375-8.056640625t2.5634765625-8.7890625t4.7607421875-7.0556640625t7.4462890625-2.9052734375q4.19921875,0,6.298828125,2.4169921875t2.099609375,6.5185546875q0,2.685546875-1.0009765625,5.8837890625t-2.8564453125,6.0546875t-4.39453125,4.7607421875t-5.6640625,1.904296875l-1.26953125-0.09765625q0,1.318359375,0.390625,3.5400390625t1.1474609375,4.4189453125t1.953125,3.857421875t2.9052734375,1.66015625q2.490234375,0,4.78515625-2.001953125t4.345703125-4.443359375t3.80859375-4.443359375t3.22265625-2.001953125q0.78125,0,1.611328125,0.244140625t0.927734375,1.3671875q0,0.68359375-0.3662109375,1.123046875t-0.6591796875,0.9765625q-1.513671875,2.587890625-3.2958984375,4.931640625t-4.0283203125,4.248046875t-4.9072265625,3.0029296875t-5.8837890625,1.0986328125q-4.19921875,0-6.982421875-1.4892578125t-4.4921875-4.00390625t-2.4658203125-5.810546875t-0.7568359375-6.9091796875z M72.01513671875,130.078125l1.3671875,1.220703125q0.9765625,0.87890625,1.953125,0.390625t1.7578125-1.7822265625t1.4404296875-3.1982421875t1.171875-3.90625t0.7568359375-3.90625t0.244140625-3.173828125l0-1.66015625t-0.146484375-1.7578125t-0.5126953125-1.3916015625t-1.1474609375-0.7080078125q-0.244140625-0.048828125-0.439453125-0.048828125q-1.66015625,0-2.83203125,2.099609375q-1.26953125,2.34375-2.05078125,5.6884765625t-1.123046875,6.8603515625t-0.439453125,5.2734375z M104.0791015625,151.611328125l1.025390625-1.220703125q-0.1953125-8.203125-0.439453125-16.357421875t-0.244140625-16.2109375q0-10.009765625,1.1962890625-19.3603515625t2.3681640625-19.1650390625q0.09765625-0.5859375,0.5615234375-0.9521484375t1.1474609375-0.6103515625t1.3916015625-0.341796875t1.2939453125-0.09765625q0.78125,0,1.953125,0.29296875t2.34375,1.708984375q0,0.48828125,0.0732421875,0.8544921875t0.0732421875,0.8544921875q0,3.7109375-1.0009765625,7.958984375t-1.3427734375,8.154296875q-0.390625,4.78515625-0.537109375,9.47265625t-0.146484375,9.521484375l0.09765625,4.296875q0.9765625-1.220703125,2.783203125-3.125t3.90625-3.6865234375t4.19921875-3.0517578125t3.80859375-1.26953125q2.587890625,0,3.5888671875,1.46484375t1.0009765625,3.857421875q0,2.197265625-0.9521484375,4.58984375t-2.490234375,4.6630859375t-3.4912109375,4.0771484375t-3.857421875,2.685546875q2.587890625,3.22265625,5.2978515625,6.15234375t5.9326171875,5.517578125l0,1.123046875q-0.09765625,0.48828125-0.6103515625,0.732421875t-1.123046875,0.390625t-1.1962890625,0.2197265625t-0.9765625,0.0732421875q-2.392578125,0-4.6142578125-1.416015625t-4.150390625-3.466796875t-3.6376953125-4.345703125t-3.125-4.00390625q0.29296875,5.615234375,0.6591796875,11.2060546875t0.3662109375,11.2060546875q0,0.68359375-0.6103515625,1.1474609375t-1.416015625,0.7080078125t-1.6357421875,0.341796875t-1.3671875,0.09765625q-2.880859375,0-4.0771484375-1.0498046875t-2.0263671875-3.6376953125z M114.0888671875,128.61328125q1.220703125,0,2.9052734375-1.0498046875t3.4912109375-2.6123046875t3.369140625-3.2958984375t2.5146484375-3.2958984375t0.9521484375-2.5146484375t-1.318359375-0.8544921875q-0.48828125,0-2.001953125,1.416015625t-3.369140625,3.466796875t-3.7109375,4.443359375t-2.83203125,4.296875z M143.73583984375,81.0791015625q-0.1220703125-1.4892578125,0.1953125-2.587890625t1.26953125-1.806640625t3.0517578125-0.7080078125l7.861328125,0q1.611328125,0,4.2236328125,0.1708984375t5.615234375,0.5126953125t5.9814453125,1.0498046875t5.4443359375,1.7578125t4.00390625,2.587890625t1.5380859375,3.6376953125q0,2.978515625-1.7333984375,5.5908203125t-4.345703125,4.7119140625t-5.517578125,3.7353515625t-5.2001953125,2.9541015625q9.08203125,2.001953125,14.208984375,8.30078125t5.126953125,15.72265625q0,4.98046875-1.904296875,9.8388671875t-5.2001953125,8.7646484375t-7.8125,6.298828125t-9.6923828125,2.392578125q-0.68359375,0-1.5380859375-0.146484375t-1.5625-0.4638671875t-1.220703125-0.9033203125t-0.5126953125-1.513671875q0-4.296875,4.638671875-4.296875q0.78125,0,1.8310546875,0.2197265625t1.6357421875,0.9033203125q2.685546875-1.123046875,4.9072265625-3.564453125t3.759765625-5.4443359375t2.392578125-6.298828125t0.8544921875-5.9814453125q0-3.22265625-0.9521484375-6.5673828125t-2.7587890625-6.201171875t-4.443359375-4.8095703125t-6.0546875-2.44140625q-0.87890625-0.09765625-1.9287109375-0.146484375l-2.099609375-0.09765625t-2.05078125-0.29296875t-1.7333984375-0.78125q0.390625,8.10546875,1.0009765625,16.162109375t1.6357421875,16.162109375q0.390625,0.390625,0.537109375,1.1474609375t0.244140625,1.611328125t0.09765625,1.6357421875l0,1.318359375q0,0.87890625-0.5859375,1.4404296875t-1.3916015625,0.9033203125t-1.708984375,0.439453125t-1.5869140625,0.09765625q-2.197265625,0-3.369140625-0.5859375t-1.66015625-1.708984375t-0.634765625-2.5634765625t-0.244140625-3.1494140625q-1.318359375-13.623046875-1.904296875-26.953125t-0.5859375-26.953125q0-1.611328125-0.1220703125-3.1005859375z M152.74462890625,79.00390625q0,6.005859375,0.390625,12.0361328125t0.68359375,12.0361328125q2.197265625-1.318359375,5.76171875-3.1005859375t6.9091796875-3.9306640625t5.7373046875-4.736328125t2.392578125-5.615234375q0-2.392578125-2.83203125-3.6376953125t-6.591796875-1.85546875t-7.3486328125-0.7568359375t-5.1025390625-0.439453125z M195.404296875,149.12109375q0-1.416015625,0.1220703125-2.978515625t0.2197265625-2.9296875l0.29296875-7.32421875q0.48828125-8.7890625,1.1962890625-17.28515625t1.1962890625-17.1875q0.29296875-4.78515625,0.439453125-9.3994140625t0.439453125-9.3994140625q-0.1953125-0.390625-0.1953125-0.537109375q0-0.68359375,0.5126953125-1.07421875t1.1962890625-0.6591796875t1.4404296875-0.3662109375t1.1474609375-0.09765625l1.123046875,0q1.513671875,0.1953125,2.197265625,0.9521484375t0.87890625,1.806640625t0.09765625,2.24609375t-0.09765625,2.2216796875q0,7.080078125-0.341796875,14.4287109375t-0.78125,14.74609375t-0.8056640625,14.794921875t-0.3662109375,14.6240234375l0,3.41796875q0,2.294921875-1.2939453125,3.02734375t-3.5888671875,0.732421875q-2.001953125,0-3.515625-0.87890625t-1.513671875-2.880859375z M216.82373046875,132.71484375q0-2.783203125,0.7080078125-5.7373046875t2.24609375-5.322265625t3.8818359375-3.857421875t5.6640625-1.4892578125q2.490234375,0,5.2490234375,0.8544921875t5.0537109375,2.44140625t3.7353515625,3.8818359375t1.4404296875,5.126953125q0,3.41796875-1.2451171875,6.494140625t-3.4912109375,5.4931640625t-5.2490234375,3.80859375t-6.5185546875,1.3916015625q-2.880859375,0-5.029296875-1.0498046875t-3.5888671875-2.8076171875t-2.1484375-4.150390625t-0.7080078125-5.078125z M224.00146484375,132.6171875q0,0.87890625,0.2685546875,2.587890625t0.8056640625,3.3447265625t1.3916015625,2.83203125t2.0751953125,1.0986328125q2.587890625-0.29296875,4.2724609375-1.6845703125t2.734375-3.3935546875t1.46484375-4.345703125t0.4150390625-4.443359375q0-2.685546875-1.0498046875-4.4921875t-3.4423828125-2.9296875q0,0.09765625,0.09765625,0.09765625t0.09765625-0.09765625l-1.220703125-0.29296875q-0.48828125-0.1953125-1.1962890625-0.439453125t-1.3916015625-1.07421875q-1.904296875,0.68359375-2.9541015625,1.7578125t-1.5869140625,2.6123046875t-0.6591796875,3.6865234375t-0.1220703125,5.17578125z M253.8193359375,130.078125q0-2.685546875,0.5126953125-5.7373046875t1.7578125-5.5908203125t3.4423828125-4.19921875t5.615234375-1.66015625q2.294921875,0,4.443359375,0.7568359375t4.052734375,2.0751953125q0.5859375-0.9765625,1.85546875-1.1962890625t2.24609375-0.2197265625q0.390625,0,1.0986328125,0.048828125t1.3916015625,0.29296875t1.1962890625,0.5859375t0.6103515625,0.9765625q0.390625,3.41796875,0.537109375,6.8115234375t0.439453125,6.7626953125q0.48828125,6.298828125,1.513671875,12.451171875t1.025390625,12.451171875q0,2.978515625-0.2685546875,6.4453125t-1.416015625,6.4208984375t-3.3447265625,4.9072265625t-6.103515625,1.953125q-3.515625,0-5.3955078125-1.2451171875t-3.3935546875-4.1748046875q0.09765625-0.9765625,1.2451171875-1.2939453125t1.9775390625-0.3173828125q0.78125,0,1.5869140625,0.146484375t1.2939453125,0.48828125l1.220703125,0.78125q1.806640625-3.7109375,2.197265625-8.10546875t0.390625-8.49609375q0-3.41796875-0.341796875-6.7626953125t-0.68359375-6.7138671875q-3.41796875,6.201171875-10.400390625,6.201171875q-3.22265625,0-5.2490234375-1.3671875t-3.125-3.466796875t-1.513671875-4.736328125t-0.4150390625-5.2734375z M259.8251953125,130.517578125q0,1.220703125,0.09765625,3.1494140625t0.5126953125,3.7841796875t1.1962890625,3.1982421875t2.197265625,1.3427734375q2.685546875,0,4.248046875-2.099609375t2.4658203125-5.0048828125t1.4404296875-6.005859375t1.3671875-5.1025390625q-0.09765625-0.68359375-0.09765625-1.3427734375l0-1.3427734375q-1.123046875-2.099609375-3.271484375-3.6376953125t-4.443359375-2.0751953125q-0.29296875-0.048828125-0.537109375-0.048828125q-1.3671875,0-2.24609375,1.611328125q-1.123046875,1.953125-1.7578125,4.6630859375t-0.9033203125,5.3466796875t-0.2685546875,3.564453125z M295.55126953125,116.796875q0-0.9765625,1.26953125-1.2451171875t1.953125-0.2685546875q4.296875,0,8.447265625-0.732421875t8.349609375-0.732421875q0.390625,0,1.2939453125,0.048828125t1.708984375,0.1953125t1.4404296875,0.48828125t0.634765625,1.025390625q0,1.220703125-0.5859375,3.515625t-1.5869140625,5.1513671875t-2.197265625,6.0546875t-2.392578125,6.103515625t-2.24609375,5.2490234375t-1.6845703125,3.662109375q1.611328125,0.29296875,3.955078125,0.48828125t4.443359375,0.390625t3.515625,0.6591796875t1.318359375,1.1474609375q-0.1953125,1.123046875-2.001953125,1.7578125q-1.7578125,0.634765625-4.39453125,0.87890625q-1.611328125,0.146484375-3.41796875,0.146484375q-1.07421875,0-2.1484375-0.048828125q-2.9296875-0.146484375-5.4931640625-0.48828125t-4.2724609375-0.9521484375t-1.708984375-1.2939453125q0-0.29296875,0.8544921875-2.392578125t2.099609375-5.1025390625t2.7587890625-6.54296875t2.9052734375-6.8115234375t2.44140625-5.810546875t1.4404296875-3.515625q-2.880859375,0.1953125-5.8349609375,0.48828125t-5.8349609375,0.29296875q-0.390625,0-1.2451171875-0.048828125t-1.66015625-0.244140625t-1.46484375-0.5615234375t-0.6591796875-0.9521484375z"/><path fill="#" d=""/></svg>
